<svg id="Capa_1" class="misvgLogo" data-name="Capa 1" xmlns="http://www.w3.org/2000/svg" xmlns:xlink="http://www.w3.org/1999/xlink" viewBox="0 0 42.92 31.62"><defs><style>.cls-1{fill:#372e2f;}.cls-2{clip-path:url(#clip-path);}.cls-3{fill:#fff;}.cls-4{fill:#ffe005;}.cls-5{fill:#e5322a;}.cls-6{fill:#076bb4;}</style><clipPath id="clip-path"><polygon class="cls-1" points="11.3 2.94 0 14.23 0 31.63 42.92 31.63 42.92 14.23 31.6 2.94 24.62 2.94 24.62 0 19.2 0 19.2 2.94 11.3 2.94 11.3 2.94"></polygon></clipPath></defs><title>logo2</title><polygon class="cls-1" points="11.3 2.94 0 14.23 0 31.63 42.92 31.63 42.92 14.23 31.6 2.94 24.62 2.94 24.62 0 19.2 0 19.2 2.94 11.3 2.94 11.3 2.94"></polygon><g class="cls-2"><polygon class="cls-3" points="23.04 17.17 39.98 17.17 39.98 28.69 23.04 28.69 23.04 17.17 23.04 17.17"></polygon><polygon class="cls-4" points="11.3 6.55 3.61 14.23 18.97 14.23 11.3 6.55 11.3 6.55"></polygon><polygon class="cls-5" points="2.94 17.17 19.88 17.17 19.88 28.69 2.94 28.69 2.94 17.17 2.94 17.17"></polygon><polygon class="cls-6" points="14.23 5.87 22.59 14.23 39.31 14.23 30.95 5.87 14.23 5.87 14.23 5.87"></polygon></g></svg>